<svg width="78" height="79" viewBox="0 0 78 79" fill="none" xmlns="http://www.w3.org/2000/svg">
<g clip-path="url(#clip0)">
<path d="M28.6294 4.71712C28.6271 4.75052 28.6241 4.78332 28.6199 4.81612C28.6134 4.87517 27.9379 10.933 28.7012 18.8093C29.1188 23.1185 30.0328 28.525 31.9735 33.8606C33.6508 30.9924 35.7339 28.1952 38.2049 25.5036C41.1735 22.2704 44.7049 19.1779 48.7014 16.3127C55.2341 11.6296 60.8006 9.12407 61.418 8.85151L62.7122 8.22109C60.4405 6.45449 57.9571 4.92885 55.2904 3.67815C46.9345 -0.239137 37.6746 -1.03894 28.8738 1.33362L28.6294 4.71712Z" fill="black"/>
<path d="M63.3622 12.9918C63.3325 13.0067 63.3023 13.0205 63.2726 13.0336C63.2181 13.0568 57.6628 15.498 51.2618 20.1006C48.1716 22.3222 44.5387 25.3073 41.2368 28.9717L43.1941 30.6232C50.9706 31.2727 58.1931 33.8624 63.4268 36.2624C70.7264 39.6101 75.6672 43.2041 76.2099 43.6055L77.3789 44.4029C78.2372 38.1781 77.5788 31.797 75.3807 25.7236C73.4163 20.2968 70.3522 15.4771 66.4144 11.5056L63.3622 12.9918Z" fill="black"/>
<path d="M73.6161 47.3684C73.5888 47.3499 73.5615 47.3308 73.5354 47.3105C73.488 47.2753 68.6083 43.6586 61.444 40.3855C57.976 38.8008 53.5738 37.1243 48.7499 36.0811L48.314 38.57C51.6568 45.6793 53.0424 53.2813 53.5934 59.0499C54.3603 67.0819 53.7351 73.1821 53.661 73.8548L53.5602 75.2499C62.6551 71.524 69.9091 64.5948 74.0829 55.5954C75.0396 53.5324 75.8095 51.4145 76.3919 49.262L73.6161 47.3684Z" fill="black"/>
<path d="M49.1228 73.4773C49.1252 73.4439 49.1282 73.4111 49.1323 73.3783C49.1389 73.3192 49.8144 67.2614 49.0511 59.3857C48.6822 55.5757 47.9247 50.9087 46.414 46.191L44.0101 47.0708C42.6957 48.9829 41.1981 50.858 39.5213 52.6843C36.5527 55.9175 33.0213 59.0099 29.0248 61.8751C22.4921 66.5582 16.9262 69.0638 16.3082 69.3363L15.0371 69.9554C17.3064 71.7202 19.7875 73.2435 22.4512 74.4924C27.6742 76.9413 33.2502 78.1729 38.8469 78.1729C42.2076 78.1729 45.5765 77.7286 48.8803 76.8369L49.1228 73.4773Z" fill="black"/>
<path d="M4.12516 30.8117C4.15244 30.8308 4.17913 30.8499 4.20582 30.8695C4.25327 30.9047 9.13292 34.522 16.2973 37.7952C19.7629 39.3787 24.1603 41.0528 28.9783 42.096L29.419 39.5821C26.0904 32.4852 24.7096 24.9018 24.1592 19.1445C23.3922 11.1131 24.0174 5.01291 24.0915 4.33955L24.1947 2.91589C15.0932 6.64054 7.83457 13.5721 3.65955 22.5757C2.70106 24.6411 1.93059 26.7626 1.34814 28.9175L4.12516 30.8117Z" fill="black"/>
<path d="M14.3647 65.1953C14.3943 65.181 14.4246 65.1673 14.4548 65.1542C14.5088 65.1303 20.064 62.6897 26.4656 58.0872C29.5582 55.8631 33.194 52.8756 36.4983 49.2071L34.5422 47.5568C26.7675 46.9061 19.548 44.3176 14.3154 41.9182C7.01585 38.5711 2.07511 34.9771 1.53181 34.5751L0.36276 33.7776C-0.49312 39.9995 0.165249 46.377 2.36219 52.4474C4.3278 57.8766 7.39426 62.6987 11.335 66.6714L14.3647 65.1953Z" fill="black"/>
</g>
<defs>
<clipPath id="clip0">
<rect width="77.7421" height="78.174" fill="white"/>
</clipPath>
</defs>
</svg>
