<svg width="96" height="96" viewBox="0 0 96 96" fill="none" xmlns="http://www.w3.org/2000/svg">
<g clip-path="url(#clip0)">
<path d="M95.1671 28.6295C94.937 23.5976 94.1378 20.1613 92.9693 17.1549C91.7827 14.0007 89.9218 11.1436 87.5169 8.78202C85.1561 6.37718 82.2983 4.51549 79.144 3.32823C76.1369 2.16043 72.7013 1.36195 67.6695 1.13329C62.6283 0.902475 61.0176 0.847656 48.1798 0.847656C35.342 0.847656 33.7313 0.902475 28.6901 1.13185C23.6583 1.36195 20.2227 2.16115 17.2156 3.32967C14.0613 4.51622 11.2042 6.37718 8.84269 8.78202C6.43785 11.1428 4.57616 13.9999 3.38889 17.1542C2.2211 20.1613 1.42262 23.5976 1.19396 28.6287C0.963144 33.6707 0.908325 35.2806 0.908325 48.1184C0.908325 60.9569 0.963144 62.5676 1.19396 67.6088C1.42334 72.6399 2.22254 76.0762 3.39106 79.0833C4.57761 82.2369 6.43857 85.0947 8.84341 87.4555C11.2042 89.8604 14.0621 91.7213 17.2163 92.9079C20.2227 94.0771 23.659 94.8756 28.6908 95.1057C33.7328 95.3358 35.3427 95.3899 48.1805 95.3899C61.0183 95.3899 62.629 95.3358 67.6702 95.1057C72.702 94.8756 76.1376 94.0771 79.1447 92.9079C85.4944 90.4526 90.5139 85.433 92.9693 79.0833C94.1385 76.0762 94.937 72.6399 95.1671 67.6088C95.3965 62.5669 95.4513 60.9569 95.4513 48.1191C95.4513 35.2806 95.3965 33.6707 95.1671 28.6295ZM86.6578 67.2215C86.4479 71.8306 85.6776 74.3335 85.0306 75.999C83.4401 80.122 80.182 83.3801 76.059 84.9706C74.3935 85.6176 71.8906 86.388 67.2814 86.5979C62.2979 86.8258 60.8026 86.8734 48.1798 86.8734C35.5562 86.8734 34.0617 86.8258 29.0775 86.5979C24.469 86.388 21.9661 85.6176 20.2999 84.9706C18.2471 84.2125 16.3897 83.0043 14.8649 81.4341C13.2946 79.9092 12.0864 78.0526 11.3283 75.999C10.6813 74.3335 9.91094 71.8306 9.70104 67.2215C9.47383 62.2372 9.4255 60.742 9.4255 48.1199C9.4255 35.497 9.47383 34.0025 9.70104 29.0175C9.91166 24.4084 10.6813 21.9054 11.3283 20.24C12.0864 18.1864 13.2953 16.329 14.8649 14.8042C16.3897 13.2339 18.2471 12.0257 20.3006 11.2684C21.9661 10.6206 24.469 9.85099 29.0782 9.64037C34.0624 9.41316 35.5577 9.36483 48.1798 9.36483H48.1791C60.8012 9.36483 62.2965 9.41316 67.2814 9.64109C71.8906 9.85099 74.3928 10.6213 76.059 11.2684C78.1118 12.0264 79.9692 13.2346 81.494 14.8042C83.0643 16.329 84.2725 18.1864 85.0299 20.24C85.6776 21.9054 86.4479 24.4084 86.6578 29.0175C86.8851 34.0017 86.9334 35.497 86.9334 48.1191C86.9334 60.742 86.8858 62.2365 86.6578 67.2215Z" fill="black"/>
<path d="M48.1791 23.8442C34.7729 23.8442 23.905 34.7129 23.905 48.1191C23.905 61.5252 34.7729 72.3932 48.1791 72.3932C61.586 72.3932 72.4539 61.5252 72.4539 48.1191C72.4539 34.7129 61.586 23.8442 48.1791 23.8442ZM48.1791 63.876C39.4773 63.8753 32.4222 56.8209 32.4229 48.1183C32.4229 39.4165 39.4773 32.3614 48.1798 32.3614C56.8824 32.3621 63.9368 39.4165 63.9368 48.1183C63.9368 56.8209 56.8817 63.876 48.1791 63.876Z" fill="black"/>
<path d="M79.0855 22.8857C79.0855 26.0183 76.5458 28.5581 73.4132 28.5581C70.2798 28.5581 67.7401 26.0183 67.7401 22.8857C67.7401 19.7524 70.2798 17.2126 73.4132 17.2126C76.5458 17.2126 79.0855 19.7524 79.0855 22.8857Z" fill="black"/>
</g>
<defs>
<clipPath id="clip0">
<rect x="0.908325" y="0.847656" width="94.543" height="94.543" fill="white"/>
</clipPath>
</defs>
</svg>
