<svg width="180" height="181" viewBox="0 0 180 181" fill="none" xmlns="http://www.w3.org/2000/svg">
<path d="M66.2875 13.9219C66.282 13.9992 66.2751 14.0752 66.2655 14.1511C66.2504 14.2878 64.6862 28.3139 66.4536 46.5503C67.4204 56.5274 69.5367 69.0455 74.0301 81.3992C77.9137 74.7584 82.7367 68.2818 88.4579 62.0497C95.3312 54.5638 103.508 47.4037 112.761 40.7698C127.886 29.9268 140.775 24.1255 142.204 23.4944L145.201 22.0348C139.941 17.9445 134.191 14.4121 128.017 11.5163C108.67 2.44646 87.2302 0.594642 66.8533 6.08794L66.2875 13.9219Z" fill="black"/>
<path d="M141.228 30.0807C141.159 30.1152 141.089 30.1469 141.021 30.1773C140.894 30.2312 128.032 35.8833 113.211 46.5398C106.057 51.6838 97.6451 58.5953 90 67.0797L94.5319 70.9034C112.537 72.4072 129.26 78.4032 141.378 83.96C158.279 91.7111 169.718 100.033 170.975 100.962L173.682 102.808C175.669 88.3955 174.144 73.6211 169.055 59.5592C164.507 46.9942 157.412 35.835 148.295 26.6394L141.228 30.0807Z" fill="black"/>
<path d="M165.583 104.134C165.52 104.091 165.457 104.047 165.396 104C165.287 103.918 153.989 95.5446 137.401 87.9661C129.371 84.297 119.178 80.4152 108.009 78L107 83.7626C114.74 100.223 117.948 117.824 119.224 131.181C120.999 149.777 119.552 163.902 119.38 165.459L119.147 168.689C140.205 160.063 157 144.019 166.664 123.182C168.879 118.406 170.662 113.502 172.01 108.518L165.583 104.134Z" fill="black"/>
<path d="M113.92 162.177C113.926 162.1 113.933 162.024 113.942 161.948C113.957 161.811 115.522 147.785 113.754 129.55C112.9 120.729 111.146 109.923 107.648 99L102.083 101.037C99.0393 105.464 95.5717 109.806 91.6895 114.034C84.8161 121.52 76.6396 128.68 67.3863 135.314C52.2609 146.157 39.3739 151.958 37.943 152.589L35 154.023C40.2542 158.109 45.9987 161.636 52.1661 164.527C64.2593 170.197 77.1696 173.049 90.128 173.049C97.9091 173.049 105.709 172.02 113.359 169.956L113.92 162.177Z" fill="black"/>
<path d="M16.4297 71.3396C16.4929 71.3838 16.5547 71.428 16.6165 71.4736C16.7264 71.5551 28.0244 79.9303 44.6124 87.5088C52.6366 91.1752 62.8181 95.0514 73.9734 97.4666L74.9937 91.6461C67.2868 75.2145 64.0898 57.6561 62.8154 44.3261C61.0397 25.7306 62.4872 11.6065 62.6588 10.0475L62.8978 6.75122C41.8246 15.3751 25.0183 31.4241 15.3517 52.2705C13.1325 57.0526 11.3486 61.9646 10 66.9538L16.4297 71.3396Z" fill="black"/>
<path d="M40.2581 147.743C40.3267 147.71 40.3968 147.678 40.4668 147.647C40.5918 147.592 53.454 141.941 68.276 131.285C75.4363 126.135 83.8546 119.218 91.5052 110.724L86.9761 106.903C68.975 105.397 52.2593 99.4036 40.1441 93.8482C23.243 86.0985 11.8035 77.777 10.5455 76.8463L7.83878 75C5.85713 89.4058 7.38148 104.172 12.4681 118.227C17.0192 130.797 24.1192 141.962 33.2433 151.161L40.2581 147.743Z" fill="black"/>
</svg>
