<svg width="93" height="92" viewBox="0 0 93 92" fill="none" xmlns="http://www.w3.org/2000/svg">
<g clip-path="url(#clip0)">
<path d="M92.2308 0.159912H0.399536V91.9912H92.2308V0.159912Z" fill="black"/>
<path d="M76.6448 17.0552L14.5246 41.0151C10.2848 42.7162 10.3099 45.0809 13.7518 46.1354L29.2448 50.9711L35.1727 69.1458C35.8934 71.135 35.5381 71.9239 37.627 71.9239C39.2391 71.9239 39.9542 71.189 40.852 70.3119C41.423 69.7532 44.8129 66.4573 48.598 62.7772L64.7136 74.6841C67.6791 76.3202 69.8204 75.4726 70.5588 71.9299L81.1374 22.0793C82.2205 17.7371 79.482 15.7675 76.6448 17.0552ZM31.6762 49.8601L66.5974 27.828C68.3407 26.7708 69.9392 27.3392 68.6268 28.5042L38.7251 55.4831L37.5608 67.901L31.6762 49.8601Z" fill="white"/>
</g>
<defs>
<clipPath id="clip0">
<rect x="0.399536" y="0.159912" width="91.8313" height="91.8313" rx="10" fill="white"/>
</clipPath>
</defs>
</svg>
