<svg width="93" height="93" viewBox="0 0 93 93" fill="none" xmlns="http://www.w3.org/2000/svg">
<g clip-path="url(#clip0)">
<rect width="93" height="93" fill="white"/>
<path d="M65.5509 46.2285C65.5509 46.2285 73.1771 35.056 73.9351 31.5211C74.1884 30.2584 73.6338 29.1377 72.3193 29.1377C72.3193 29.1377 67.9247 29.1377 65.7025 29.1377C64.1865 29.1377 63.6319 30.2085 63.1771 31.168C63.1771 31.168 59.6 38.9976 55.2477 43.801C53.8506 45.3534 53.4937 45.9253 52.7222 45.9253C52.1005 45.9253 52.1657 45.5108 52.1657 44.1099V31.8358C52.1657 30.1164 51.258 29.1377 49.8437 29.1377H39.2373C38.4294 29.1377 38.0513 29.8439 38.0513 30.4848C38.0513 32.1026 40.6535 32.7032 40.6535 37.0863V46.1268C40.6535 47.946 40.4251 48.6522 39.5673 48.6522C37.2952 48.6522 31.826 40.5866 28.7959 31.6958C28.1875 29.8804 27.4679 29.1377 25.7504 29.1377H19.1336C18.1741 29.1377 17.4659 30.032 17.4659 30.9915C17.4659 32.7589 19.5366 41.0606 27.6694 52.022C33.1252 59.3968 40.548 63.446 47.0131 63.446C50.9529 63.446 52.1638 62.8492 52.1638 61.1815V55.5243C52.1638 54.1099 52.467 53.5035 53.2749 53.5035C54.1845 53.5035 55.6622 53.8835 59.412 57.5815C63.8603 61.8244 64.0368 63.6801 66.4605 63.6801H73.8852C74.6432 63.6801 75.3494 63.2387 75.3494 61.976C75.3494 60.3084 73.1771 57.2859 69.8438 53.7492C68.4793 51.9319 66.2571 49.9399 65.5509 49.0303C64.5415 47.9691 64.8447 47.3396 65.5509 46.2285Z" fill="black"/>
<path d="M79.0321 92.4652H13.7853C6.37791 92.4652 0.352173 86.4375 0.352173 79.032V13.7852C0.352173 6.3797 6.37791 0.352051 13.7853 0.352051H79.0321C86.4396 0.352051 92.4653 6.3797 92.4653 13.7852V79.032C92.4653 86.4375 86.4396 92.4652 79.0321 92.4652ZM13.7853 4.1901C8.49459 4.1901 4.19022 8.49447 4.19022 13.7852V79.032C4.19022 84.3228 8.49459 88.6271 13.7853 88.6271H79.0321C84.3229 88.6271 88.6272 84.3228 88.6272 79.032V13.7852C88.6272 8.49447 84.3229 4.1901 79.0321 4.1901H13.7853Z" fill="black"/>
</g>
<defs>
<clipPath id="clip0">
<rect width="93" height="93" fill="white"/>
</clipPath>
</defs>
</svg>
