<svg width="93" height="93" viewBox="0 0 93 93" fill="none" xmlns="http://www.w3.org/2000/svg">
<g clip-path="url(#clip0)">
<path fill-rule="evenodd" clip-rule="evenodd" d="M10.5184 92.9069H82.6773C88.3705 92.9069 92.9858 88.2917 92.9858 82.5985V10.4395C92.9858 4.74634 88.3705 0.131104 82.6773 0.131104H10.5184C4.8252 0.131104 0.209961 4.74634 0.209961 10.4395V82.5985C0.209961 88.2917 4.8252 92.9069 10.5184 92.9069Z" fill="black"/>
<path fill-rule="evenodd" clip-rule="evenodd" d="M46.5889 15.5938V15.5943H46.6068C63.6554 15.5943 77.5231 29.4659 77.5231 46.5193C77.5231 63.5721 63.6554 77.4443 46.6068 77.4443C40.318 77.4443 34.4837 75.572 29.5947 72.3359L17.708 76.1348L21.5613 64.645C17.8537 59.554 15.6726 53.2819 15.6726 46.5188C15.6726 29.4654 29.5403 15.5938 46.5889 15.5938ZM37.9554 31.3023C37.3557 29.8661 36.9012 29.8117 35.9928 29.7748C35.6835 29.7568 35.3388 29.7389 34.9566 29.7389C33.7748 29.7389 32.5391 30.0842 31.7937 30.8477C30.8853 31.7749 28.6314 33.9381 28.6314 38.3743C28.6314 42.8106 31.8666 47.1011 32.3026 47.7015C32.7571 48.3008 38.6099 57.5365 47.6974 61.3006C54.8039 64.2458 56.9126 63.9729 58.53 63.6275C60.8926 63.1185 63.8555 61.3725 64.6008 59.2641C65.3461 57.1548 65.3461 55.3548 65.1276 54.9731C64.9096 54.5914 64.3094 54.3738 63.401 53.9187C62.4925 53.4641 58.0755 51.2824 57.2394 50.9914C56.4212 50.6826 55.64 50.7919 55.0224 51.6646C54.1498 52.8827 53.2958 54.1193 52.6048 54.8643C52.0596 55.4462 51.1686 55.519 50.4237 55.2096C49.424 54.792 46.6253 53.8094 43.1716 50.7369C40.4996 48.3557 38.6822 45.3925 38.1554 44.5018C37.6281 43.5931 38.101 43.0651 38.5186 42.5746C38.9731 42.0107 39.4091 41.611 39.8635 41.0835C40.318 40.5565 40.5724 40.2836 40.8633 39.6653C41.1726 39.0655 40.9541 38.4472 40.7361 37.9926C40.5181 37.538 38.7007 33.1017 37.9554 31.3023Z" fill="white"/>
</g>
<defs>
<clipPath id="clip0">
<rect x="0.209961" y="0.131104" width="92.7758" height="92.7758" fill="white"/>
</clipPath>
</defs>
</svg>
