<svg width="56" height="56" viewBox="0 0 56 56" fill="none" xmlns="http://www.w3.org/2000/svg">
<circle cx="28.1978" cy="28.2647" r="27.5" fill="black"/>
<g clip-path="url(#clip0)">
<path d="M42.0139 13.7124C38.3818 10.8432 33.3777 9.06415 27.8636 9.06415C22.3494 9.06415 17.3146 10.8715 13.6868 13.7454C9.98872 16.6712 7.69775 20.739 7.69775 25.2315C7.70336 27.2661 8.16815 29.2689 9.05211 31.0689C9.9165 32.8131 11.075 34.3699 12.4688 35.6605L8.99934 43.3902C8.81609 43.7843 8.96526 44.2632 9.33254 44.4599C9.56604 44.5849 9.84339 44.5693 10.0635 44.4189L17.8642 39.2516C19.0746 39.7965 20.3247 40.2338 21.6019 40.5588C22.3348 40.7507 23.0852 40.908 23.8533 41.0307C23.1773 39.6832 22.8223 38.1771 22.8199 36.6467C22.8199 33.2443 24.5788 30.3374 27.0677 28.3554C29.8178 26.2811 33.1078 25.1911 36.469 25.2409C39.8301 25.1911 43.1202 26.2811 45.8703 28.3554C46.3497 28.7344 46.8024 29.1507 47.2247 29.6013C47.3508 29.2394 47.4621 28.873 47.5589 28.5017C47.8444 27.4271 47.9923 26.3159 47.9986 25.1984C47.9986 20.6965 45.712 16.6382 42.0139 13.7124Z" fill="white"/>
<path d="M45.9407 42.9183C46.7188 42.1608 47.3676 41.2633 47.8579 40.2662C48.4049 39.1548 48.693 37.9178 48.6978 36.6609C48.6978 33.8861 47.2951 31.3851 45.0261 29.5919C42.5219 27.7026 39.5253 26.7116 36.4646 26.7605C33.4039 26.7116 30.4073 27.7026 27.9032 29.5919C25.6342 31.3851 24.2314 33.8814 24.2314 36.6704C24.2314 39.4593 25.6342 41.9462 27.9032 43.7489C30.4073 45.6381 33.4039 46.6291 36.4646 46.5803C37.5516 46.5813 38.636 46.4643 39.701 46.2311C40.6037 46.0326 41.487 45.7435 42.3393 45.3675L46.8289 48.3405C47.1751 48.577 47.6345 48.4676 47.8549 48.0961C47.9951 47.8599 48.0095 47.5622 47.8931 47.3117L45.9407 42.9183Z" fill="white"/>
</g>
<defs>
<clipPath id="clip0">
<rect x="7.69775" y="6.76471" width="41" height="44" fill="white"/>
</clipPath>
</defs>
</svg>
